<?xml version="1.0" standalone="no"?>
<!DOCTYPE svg PUBLIC "-//W3C//DTD SVG 20010904//EN"
 "http://www.w3.org/TR/2001/REC-SVG-20010904/DTD/svg10.dtd">
<svg version="1.0" xmlns="http://www.w3.org/2000/svg"
 width="260.000000pt" height="260.000000pt" viewBox="0 0 260.000000 260.000000"
 preserveAspectRatio="xMidYMid meet">
<metadata>
Created by potrace 1.11, written by Peter Selinger 2001-2013
</metadata>
<g transform="translate(0.000000,260.000000) scale(0.100000,-0.100000)"
fill="#000000" stroke="none">
<path d="M1207 2593 c-4 -3 -7 -17 -7 -31 0 -17 -4 -22 -14 -19 -15 6 -28 -37
-42 -138 -5 -39 -8 -46 -15 -30 -13 34 -10 -190 6 -345 19 -188 33 -283 50
-331 8 -22 10 -39 5 -39 -4 0 -12 15 -15 33 -11 47 -78 212 -134 330 -56 116
-131 222 -227 319 -75 75 -169 132 -183 110 -4 -8 -11 -13 -15 -13 -19 3 -23
-1 -22 -21 1 -13 -4 -22 -11 -20 -16 3 -17 -22 -2 -49 16 -31 21 -58 24 -137
2 -59 0 -72 -11 -68 -20 8 -17 -2 17 -64 17 -30 35 -66 40 -80 8 -24 7 -23
-14 4 -12 16 -32 41 -44 55 l-21 26 4 -43 c2 -23 11 -53 20 -67 9 -14 14 -31
11 -39 -6 -14 63 -123 131 -206 70 -86 70 -85 12 -51 -107 63 -435 221 -458
221 -4 0 9 -10 28 -22 19 -11 31 -23 25 -25 -5 -1 -10 -32 -10 -68 1 -36 -3
-65 -8 -65 -4 0 -3 -9 3 -20 10 -18 9 -19 -16 -10 -15 6 -29 8 -32 5 -3 -3
-17 5 -31 17 -14 13 -8 3 14 -20 45 -49 146 -115 248 -162 37 -18 67 -33 67
-34 0 -1 -30 1 -67 5 -86 10 -300 11 -344 2 -28 -5 -30 -7 -14 -14 17 -6 15
-8 -10 -9 -24 -1 -26 -3 -11 -9 16 -6 10 -10 -28 -21 -59 -16 -68 -30 -19 -31
l38 -1 -30 -10 c-39 -14 -40 -15 -25 -33 11 -13 7 -15 -26 -16 -32 0 -35 -2
-18 -9 30 -12 40 -30 17 -30 -15 0 -14 -4 7 -20 54 -42 173 -67 374 -78 l130
-7 -74 -29 c-72 -28 -213 -106 -206 -114 2 -2 17 3 33 11 15 8 39 18 53 22 28
8 -4 -19 -113 -96 -32 -22 -57 -43 -54 -45 2 -3 40 17 83 44 44 27 87 52 98
55 18 7 18 6 2 -18 -17 -26 -9 -34 13 -12 8 6 6 -1 -4 -16 -10 -16 -24 -26
-31 -23 -8 3 -29 -9 -46 -27 -34 -34 -108 -64 -127 -53 -26 16 -8 -14 25 -44
47 -40 64 -38 221 36 170 81 177 82 113 26 -30 -27 -68 -61 -85 -77 -29 -26
-28 -26 10 3 53 39 85 55 85 43 0 -5 -15 -20 -32 -33 -56 -39 -199 -181 -194
-193 2 -6 -16 -31 -40 -55 -24 -24 -44 -51 -44 -60 0 -8 13 -30 29 -48 26 -28
36 -32 78 -32 26 0 68 9 92 20 40 18 43 19 36 2 -4 -9 -9 -26 -12 -37 l-4 -20
16 20 c17 20 17 20 10 -5 -4 -14 -14 -40 -21 -59 -8 -18 -14 -41 -14 -51 0
-20 73 -90 93 -90 33 1 98 44 154 101 73 75 85 90 164 206 32 48 59 84 59 82
0 -3 -11 -43 -25 -89 -59 -196 -74 -405 -35 -485 30 -63 86 -82 131 -46 23 18
24 18 56 -6 26 -20 40 -24 67 -19 35 7 79 48 91 86 3 11 18 23 33 26 109 24
123 34 165 118 l25 49 16 -58 c23 -77 52 -105 110 -105 144 0 165 176 58 479
-3 9 23 -27 58 -79 107 -161 215 -259 288 -260 39 0 96 36 111 70 13 31 10 60
-16 126 -4 10 6 9 38 -6 24 -11 65 -20 90 -20 37 0 50 5 71 27 53 56 44 114
-31 191 -22 23 -39 42 -37 42 2 0 23 -7 46 -15 23 -8 69 -15 101 -15 54 0 59
2 87 36 37 45 44 83 22 132 -24 53 -77 94 -200 155 l-105 52 155 0 c150 0 157
1 213 28 81 40 105 93 72 156 -16 32 -71 58 -140 68 l-44 6 35 32 c30 29 34
38 34 84 0 119 -90 142 -374 95 -17 -3 14 14 69 38 172 76 285 159 301 223 14
56 -21 108 -81 119 -63 12 -229 -40 -396 -125 -32 -16 -59 -26 -59 -22 0 4 13
21 29 38 56 58 138 184 166 252 38 95 43 176 13 228 -44 75 -69 61 -159 -89
-33 -56 -104 -160 -158 -233 -54 -73 -129 -179 -167 -237 -38 -58 -73 -106
-77 -106 -4 0 -10 7 -14 16 -4 10 9 31 34 57 63 67 96 114 172 246 111 194
170 371 157 471 -7 49 -48 116 -78 126 -21 6 -62 -17 -90 -50 -26 -31 -76
-127 -130 -251 -38 -84 -48 -101 -44 -70 39 271 -6 425 -123 425 -29 0 -59
-29 -45 -43 4 -3 -4 -36 -16 -73 l-22 -66 -18 48 c-43 123 -110 201 -143 167z
m229 -951 c-12 -12 -18 8 -10 35 l8 28 4 -28 c2 -16 1 -31 -2 -35z m-506 -222
c0 -5 -8 -10 -17 -10 -15 0 -16 2 -3 10 19 12 20 12 20 0z m810 -15 c-25 -12
-47 -21 -49 -20 -7 8 27 33 50 38 44 8 44 6 -1 -18z m-800 -233 c0 -4 -10 -13
-22 -21 -23 -14 -23 -14 -4 8 20 22 26 25 26 13z m-635 -267 c-31 -25 -62 -34
-49 -14 6 10 61 38 74 38 3 0 -8 -11 -25 -24z m1195 -50 c0 -8 -2 -15 -4 -15
-2 0 -6 7 -10 15 -3 8 -1 15 4 15 6 0 10 -7 10 -15z"/>
<path d="M334 738 l-19 -23 23 19 c21 18 27 26 19 26 -2 0 -12 -10 -23 -22z"/>
<path d="M451 414 c0 -11 3 -14 6 -6 3 7 2 16 -1 19 -3 4 -6 -2 -5 -13z"/>
</g>
</svg>
